<svg width="100" height="100" viewBox="0 0 100 100" fill="none" xmlns="http://www.w3.org/2000/svg">
<g clip-path="url(#clip0)">
<mask id="mask0" mask-type="alpha" maskUnits="userSpaceOnUse" x="-283" y="-89" width="374" height="168">
<rect x="-283" y="-89" width="374" height="168" rx="8" fill="#F8F8F8"/>
</mask>
<g mask="url(#mask0)">
<path d="M17.8603 6.4425V17.7168H6.58594V28.9912H64.5682V6.4425H17.8603Z" fill="#FFD200"/>
<path d="M75.8407 85.3629C69.6255 85.3629 64.5664 80.3038 64.5664 74.0886C64.5664 67.8735 69.6255 62.8143 75.8407 62.8143C82.0559 62.8143 87.115 67.8735 87.115 74.0886C87.115 80.3038 82.0559 85.3629 75.8407 85.3629Z" fill="#FFD200"/>
<path d="M48.462 86.9733H6.58594V57.9822H48.462V86.9733Z" fill="#FFD200"/>
<path d="M98.3883 54.761C92.1731 54.761 87.114 49.7019 87.114 43.4867V41.876H71.0078V0H17.1905L0.140625 17.0499V93.4158H65.1245C68.0941 95.978 71.4718 98.1281 75.205 99.7277L75.8396 99.9998L76.4743 99.7277C90.7654 93.6045 99.9989 79.5997 99.9989 64.0527V54.761H98.3883ZM16.2468 5.49875V16.1062H5.63937L16.2468 5.49875ZM3.36186 19.3274H19.468V3.22123H67.7866V41.876H64.5653V43.4867C64.5653 49.7019 59.5062 54.761 53.291 54.761H51.6804V64.0527C51.6804 73.9366 55.4238 83.1866 61.8128 90.1946H3.36186V19.3274ZM96.7777 64.0527C96.7777 78.0795 88.583 90.7341 75.8396 96.4892C63.0963 90.7356 54.9016 78.0795 54.9016 64.0527V57.8934C61.6099 57.1494 66.9521 51.8071 67.6961 45.0989H83.9816C84.7256 51.8071 90.0678 57.1494 96.7761 57.8934V64.0527H96.7777Z" fill="#333333"/>
<path d="M75.1229 74.8954L71.9016 72.7484L70.1133 75.4286L76.5558 79.7241L86.9831 55.3958L84.0229 54.1265L75.1229 74.8954Z" fill="#333333"/>
<path d="M13.0273 32.2124H48.4609V35.4336H13.0273V32.2124Z" fill="#333333"/>
<path d="M6.58594 32.2124H9.80717V35.4336H6.58594V32.2124Z" fill="#333333"/>
<path d="M6.58594 38.655H48.462V41.8763H6.58594V38.655Z" fill="#333333"/>
<path d="M6.58594 45.097H48.462V48.3183H6.58594V45.097Z" fill="#333333"/>
<path d="M6.58594 51.5397H48.462V54.7609H6.58594V51.5397Z" fill="#333333"/>
</g>
</g>
<defs>
<clipPath id="clip0">
<rect width="100" height="100" fill="white"/>
</clipPath>
</defs>
</svg>
