<svg width="100" height="100" viewBox="0 0 100 100" fill="none" xmlns="http://www.w3.org/2000/svg">
<g clip-path="url(#clip0)">
<mask id="mask0" mask-type="alpha" maskUnits="userSpaceOnUse" x="-283" y="-89" width="374" height="168">
<rect x="-283" y="-89" width="374" height="168" rx="8" fill="#F8F8F8"/>
</mask>
<g mask="url(#mask0)">
<path d="M28.125 45.3125C23.8172 45.3125 20.3125 41.8078 20.3125 37.5C20.3125 33.1922 23.8172 29.6875 28.125 29.6875C32.4328 29.6875 35.9375 33.1922 35.9375 37.5C35.9375 41.8078 32.4328 45.3125 28.125 45.3125Z" fill="#FFD200"/>
<path d="M20.1078 59.1703C16.3375 60.5844 14.0625 62.9375 14.0625 65.625C14.0625 70.0797 20.1078 73.4375 28.125 73.4375C36.1422 73.4375 42.1875 70.0797 42.1875 65.625C42.1875 62.9375 39.9125 60.5844 36.1422 59.1703C40.5109 53.5969 45.3125 45.625 45.3125 37.5C45.3125 28.0234 37.6016 20.3125 28.125 20.3125C18.6484 20.3125 10.9375 28.0234 10.9375 37.5C10.9375 45.625 15.7391 53.5969 20.1078 59.1703ZM39.0625 65.625C39.0625 67.8375 34.3844 70.3125 28.125 70.3125C21.8656 70.3125 17.1875 67.8375 17.1875 65.625C17.1875 64.1672 19.225 62.6359 22.2328 61.7469C24.7984 64.7094 26.85 66.5781 27.0813 66.7859L28.125 67.7281L29.1703 66.7859C29.4016 66.5781 31.4531 64.7094 34.0187 61.7469C37.025 62.6359 39.0625 64.1672 39.0625 65.625ZM28.125 23.4375C35.8781 23.4375 42.1875 29.7453 42.1875 37.5C42.1875 48.6281 31.5453 60.0703 28.125 63.4609C24.7016 60.0734 14.0625 48.6453 14.0625 37.5C14.0625 29.7453 20.3719 23.4375 28.125 23.4375Z" fill="#111111"/>
<path d="M95.3125 76.5625V54.0703C95.3125 53.1391 95.0406 52.2406 94.525 51.4703L89.7281 44.275C88.8562 42.9672 87.3984 42.1875 85.8281 42.1875H67.1875V32.8125H70.3125C72.0359 32.8125 73.4375 31.4109 73.4375 29.6875V26.5625C73.4375 24.8391 72.0359 23.4375 70.3125 23.4375H54.6875V9.375C54.6875 5.06719 51.1828 1.5625 46.875 1.5625H9.375C5.06719 1.5625 1.5625 5.06719 1.5625 9.375V90.625C1.5625 94.9328 5.06719 98.4375 9.375 98.4375H46.875C51.1828 98.4375 54.6875 94.9328 54.6875 90.625V85.9375H67.3125C67.4719 84.8328 67.7953 83.7844 68.2609 82.8125H54.6875V79.6875H70.4859H85.7656H95.3125V82.8125H87.9891C88.4547 83.7844 88.7781 84.8328 88.9375 85.9375H95.3125C97.0359 85.9375 98.4375 84.5359 98.4375 82.8125V79.6875C98.4375 77.9641 97.0359 76.5625 95.3125 76.5625ZM92.1875 76.5625H89.0625V73.4375H92.1875V76.5625ZM92.1875 54.0703V60.9375H73.4375V51.5625H90.8297L91.925 53.2062C92.0969 53.4625 92.1875 53.7609 92.1875 54.0703ZM70.3125 26.5625V29.6875H54.6875V26.5625H70.3125ZM51.5625 76.5625H4.6875V17.1875H51.5625V76.5625ZM20.3125 4.6875H35.9375V7.8125H20.3125V4.6875ZM9.375 4.6875H17.1875V7.8125C17.1875 9.53594 18.5891 10.9375 20.3125 10.9375H35.9375C37.6609 10.9375 39.0625 9.53594 39.0625 7.8125V4.6875H46.875C49.4594 4.6875 51.5625 6.79063 51.5625 9.375V14.0625H4.6875V9.375C4.6875 6.79063 6.79063 4.6875 9.375 4.6875ZM51.5625 90.625C51.5625 93.2094 49.4594 95.3125 46.875 95.3125H9.375C6.79063 95.3125 4.6875 93.2094 4.6875 90.625V79.6875H51.5625V90.625ZM54.6875 32.8125H64.0625V76.5625H60.9375V35.9375H57.8125V76.5625H54.6875V32.8125ZM67.1875 76.5625V45.3125H85.8281C86.3516 45.3125 86.8375 45.5719 87.1281 46.0078L88.7469 48.4375H73.4375C71.7141 48.4375 70.3125 49.8391 70.3125 51.5625V60.9375C70.3125 62.6609 71.7141 64.0625 73.4375 64.0625H92.1875V70.3125H85.9375V76.5625H67.1875Z" fill="#111111"/>
</g>
</g>
<defs>
<clipPath id="clip0">
<rect width="100" height="100" fill="white"/>
</clipPath>
</defs>
</svg>
