<svg width="100" height="100" viewBox="0 0 100 100" fill="none" xmlns="http://www.w3.org/2000/svg">
<g clip-path="url(#clip0)">
<mask id="mask0" mask-type="alpha" maskUnits="userSpaceOnUse" x="-283" y="-89" width="374" height="168">
<rect x="-283" y="-89" width="374" height="168" rx="8" fill="#F8F8F8"/>
</mask>
<g mask="url(#mask0)">
<path d="M49.5166 77.5784C50.4529 78.5147 51.7481 79.0513 53.0731 79.0513C55.7853 79.0513 57.9892 76.8891 58.0844 74.1997C60.7124 74.1061 62.825 71.9935 62.9186 69.3654C65.5466 69.2718 67.6593 67.1592 67.7529 64.5312C70.4423 64.4344 72.6053 62.2313 72.6053 59.5199C72.6053 59.2909 72.5683 59.0651 72.5376 58.8377L74.8501 56.5252L76.7188 60.2642L87.8296 54.7092L86.3873 51.8263L78.1611 55.9406L68.391 36.399L76.8722 33.073L75.6959 30.0721L66.0919 33.8386L51.7229 29.5276C50.6449 29.2058 49.5363 29.0925 48.4371 29.1326V29.0972H30.9695L23.6158 26.6533L22.5993 29.7117L28.576 31.6969L20.142 52.7854L15.1921 50.805L13.9961 53.7973L21.9368 56.9737L23.9306 51.9907L26.8182 54.88L24.1241 57.5748C23.1878 58.5112 22.6512 59.8063 22.6512 61.1313C22.6512 63.8427 24.8134 66.0474 27.5028 66.1426C27.5964 68.7706 29.709 70.8832 32.337 70.9769C32.4307 73.6049 34.5433 75.7175 37.1713 75.8111C37.2681 78.5005 39.4712 80.6627 42.1834 80.6627C43.5076 80.6627 44.8035 80.1261 45.7391 79.1898L48.4339 76.4957L49.5166 77.5784ZM50.7944 32.6167L65.0297 36.8868L73.3299 53.4896L70.9938 55.8242L64.3703 49.1503C64.962 49.2061 65.5584 49.24 66.1596 49.24V46.0171C62.408 46.0171 58.8177 44.6205 56.0528 42.0854L52.2847 38.6336C50.1579 36.6806 46.5503 36.7585 44.5085 38.8027L40.2399 43.072C39.9016 43.4072 39.4358 43.6 38.9605 43.6C37.9644 43.6 37.154 42.7896 37.154 41.7942C37.154 41.3103 37.3405 40.8579 37.6819 40.5156L43.8247 34.3737C45.6313 32.5671 48.3403 31.8802 50.7944 32.6167ZM31.7988 32.32H41.321L35.4041 38.2378C34.4528 39.1867 33.9311 40.4503 33.9311 41.7942C33.9311 44.567 36.187 46.8228 38.9605 46.8228C40.2848 46.8228 41.5807 46.2862 42.5162 45.3499L46.7855 41.0798C47.6589 40.2096 49.1972 40.1757 50.1067 41.009L53.8741 44.4624C55.1259 45.6096 56.517 46.564 58.0057 47.3115L68.8537 58.2413C69.1904 58.5788 69.3824 59.0438 69.3824 59.5199C69.3824 60.5152 68.572 61.3256 67.5759 61.3256C67.1006 61.3256 66.6348 61.1344 66.2981 60.7977L52.7961 47.2949L50.5175 49.5736L64.0194 63.0756C64.3562 63.4131 64.5482 63.8781 64.5482 64.3541C64.5482 65.3495 63.7377 66.1599 62.7416 66.1599C62.2664 66.1599 61.8006 65.9687 61.4638 65.632L47.9618 52.1292L45.6832 54.4079L59.1851 67.9098C59.5219 68.2474 59.7139 68.7124 59.7139 69.1884C59.7139 70.1837 58.9035 70.9942 57.9073 70.9942C57.4321 70.9942 56.9663 70.803 56.6295 70.4662L43.1276 56.9635L40.8489 59.2421L54.3509 72.7441C54.6876 73.0816 54.8796 73.5466 54.8796 74.0227C54.8796 75.018 54.0692 75.8284 53.0731 75.8284C52.5978 75.8284 52.132 75.6372 51.7953 75.3005L49.9777 73.4821C50.01 73.2571 50.0454 73.0313 50.0454 72.8007C50.0454 70.0885 47.8824 67.8846 45.193 67.7894C45.0994 65.1614 42.9867 63.0488 40.3587 62.9552C40.2651 60.3272 38.1525 58.2145 35.5245 58.1209C35.4277 55.4315 33.2254 53.2685 30.5132 53.2685C30.2842 53.2685 30.0584 53.3055 29.8318 53.3362L25.2312 48.7356L31.7988 32.32ZM25.874 61.1313C25.874 60.6553 26.0652 60.1903 26.402 59.8527L29.2354 57.0201C29.5721 56.6834 30.0379 56.4914 30.5132 56.4914C31.5093 56.4914 32.3197 57.3026 32.3197 58.2979C32.3197 58.7732 32.1277 59.239 31.791 59.5757L28.9584 62.4091C28.6216 62.7459 28.1558 62.9371 27.6806 62.9371C26.6845 62.9371 25.874 62.1266 25.874 61.1313ZM30.7083 65.9656C30.7083 65.4895 30.8995 65.0245 31.2363 64.687L34.0696 61.8544C34.4064 61.5176 34.8722 61.3256 35.3474 61.3256C36.3436 61.3256 37.154 62.1369 37.154 63.1322C37.154 63.6074 36.962 64.0732 36.6252 64.41L33.7927 67.2434C33.4559 67.5801 32.9901 67.7713 32.5149 67.7713C31.5187 67.7713 30.7083 66.9609 30.7083 65.9656ZM35.5426 70.7998C35.5426 70.3238 35.7338 69.8588 36.0705 69.5212L38.9039 66.6887C39.2407 66.3519 39.7065 66.1599 40.1817 66.1599C41.1778 66.1599 41.9883 66.9711 41.9883 67.9665C41.9883 68.4417 41.7963 68.9075 41.4595 69.2443L38.6269 72.0776C38.2902 72.4144 37.8244 72.6056 37.3491 72.6056C36.353 72.6056 35.5426 71.7952 35.5426 70.7998ZM46.2938 74.0785L43.4612 76.9119C43.1244 77.2487 42.6586 77.4399 42.1834 77.4399C41.1873 77.4399 40.3768 76.6294 40.3768 75.6341C40.3768 75.1581 40.568 74.6931 40.9048 74.3555L43.7382 71.5229C44.0749 71.1862 44.5407 70.9942 45.016 70.9942C46.0121 70.9942 46.8225 71.8054 46.8225 72.8007C46.8225 73.276 46.6305 73.7418 46.2938 74.0785Z" fill="#333333"/>
<path d="M19.2812 78.5325L21.5599 76.2531L23.8386 78.5325L21.5599 80.8111L19.2812 78.5325Z" fill="#333333"/>
<path d="M70.1914 16.9932L71.983 14.3141L74.6606 16.1041L72.869 18.7833L70.1914 16.9932Z" fill="#333333"/>
<path d="M63.3555 13.7004L64.5892 10.723L67.5666 11.9568L66.3328 14.9341L63.3555 13.7004Z" fill="#333333"/>
<path d="M56.0117 11.8021L56.6396 8.64062L59.7987 9.26851L59.1708 12.4292L56.0117 11.8021Z" fill="#333333"/>
<path d="M80.6627 12.9832H77.4399V21.0403H69.3828V24.2631H80.6627V12.9832Z" fill="#333333"/>
<path d="M22.6529 69.3827H12.9844V79.0512H16.2072V72.6055H22.6529V69.3827Z" fill="#333333"/>
<path d="M50.0465 11.3714H51.6579V8.14856H50.0465C39.4416 8.14856 29.323 12.1197 21.5547 19.3286L23.7476 21.6914C30.9187 15.0364 40.2568 11.3714 50.0465 11.3714Z" fill="#333333"/>
<path d="M50.045 88.7196H48.4336V91.9425H50.045C64.7752 91.9425 78.1544 84.4251 85.8362 71.8335L83.0855 70.156C75.9938 81.7798 63.6422 88.7196 50.045 88.7196Z" fill="#333333"/>
<path d="M8.98399 66.7672L0.0936325 62.3231L0 18.8053L25.3799 27.2393L24.0926 29.8162L8.98399 66.7672Z" fill="#FFD200"/>
<path d="M92.9569 66.8819L74.0195 30.7295L99.9989 20.537V62.1877L92.9569 66.8819Z" fill="#FFD200"/>
</g>
</g>
<defs>
<clipPath id="clip0">
<rect width="100" height="100" fill="white"/>
</clipPath>
</defs>
</svg>
