<svg width="100" height="100" viewBox="0 0 100 100" fill="none" xmlns="http://www.w3.org/2000/svg">
<g clip-path="url(#clip0)">
<mask id="mask0" mask-type="alpha" maskUnits="userSpaceOnUse" x="-283" y="-89" width="374" height="168">
<rect x="-283" y="-89" width="374" height="168" rx="8" fill="#F8F8F8"/>
</mask>
<g mask="url(#mask0)">
<path d="M19.7156 97.7984L16.0516 83.1452L1.35938 86.8171L14.9516 64.6359L17.6156 66.2687L8.01875 81.9327L18.3266 79.3546L20.9125 89.7015L31.4969 71.9906L34.1797 73.5937L19.7156 97.7984Z" fill="#333333"/>
<path d="M52.1594 97.7984L37.6953 73.5937L40.3781 71.9906L50.9625 89.7015L53.5484 79.3546L63.8563 81.9327L54.2594 66.2687L56.9234 64.6359L70.5156 86.8171L55.8234 83.1452L52.1594 97.7984Z" fill="#333333"/>
<path d="M35.9375 64.0625C22.9937 64.0625 12.5 53.5688 12.5 40.625C12.5 27.6812 22.9937 17.1875 35.9375 17.1875C42.7281 17.1875 48.8438 20.075 53.125 24.6906V10.8547L53.0563 10.8156C50.2078 9.17031 46.7547 9.19375 43.9422 10.7484C42.2844 7.99531 39.2781 6.25 35.8594 6.25C32.5703 6.25 29.5859 7.99531 27.9312 10.7484C25.1203 9.18906 21.6656 9.17187 18.8188 10.8156L18.6812 10.8953C15.8344 12.5391 14.1234 15.5422 14.0656 18.7531C10.8547 18.8109 7.85156 20.5219 6.20781 23.3687L6.12812 23.5063C4.48437 26.3531 4.50625 29.8094 6.06094 32.6187C3.30781 34.275 1.5625 37.2578 1.5625 40.5453V40.7031C1.5625 43.9922 3.30781 46.9766 6.06094 48.6313C4.50469 51.4406 4.48437 54.8953 6.12812 57.7438L6.20781 57.8812C7.85313 60.7281 10.8562 62.4391 14.0656 62.4969C14.1234 65.7078 15.8344 68.7109 18.6812 70.3547L18.8188 70.4344C21.6656 72.0766 25.1234 72.0562 27.9328 70.5016C29.5906 73.2547 32.5969 75 36.0156 75C39.3047 75 42.2891 73.2547 43.9438 70.5016C46.7531 72.0562 50.2078 72.0766 53.0563 70.4344L53.1937 70.3547C56.0406 68.7094 57.7516 65.7063 57.8094 62.4969C61.0219 62.4391 64.025 60.7281 65.6672 57.8812L65.7469 57.7438C67.3922 54.8969 67.3703 51.4406 65.8141 48.6313C68.5672 46.9734 70.3125 43.9781 70.3125 40.625H59.375C59.375 53.5688 48.8813 64.0625 35.9375 64.0625Z" fill="#FFD200"/>
<path d="M85.9375 14.0625H64.0625V3.125H85.9375V14.0625Z" fill="#FFD200"/>
<path d="M26.5625 40.625H23.4375C23.4375 33.7328 29.0453 28.125 35.9375 28.125V31.25C30.7672 31.25 26.5625 35.4547 26.5625 40.625Z" fill="#333333"/>
<path d="M92.1875 35.9375H76.5625V28.125H92.1875V35.9375Z" fill="#FFD200"/>
<path d="M70.3125 7.8125H73.4375V14.0625H70.3125V7.8125Z" fill="#333333"/>
<path d="M76.5625 7.8125H79.6875V14.0625H76.5625V7.8125Z" fill="#333333"/>
<path d="M92.1875 35.9375H89.0625V32.8125H92.1875V35.9375ZM85.9375 35.9375H82.8125V32.8125H85.9375V35.9375ZM79.6875 35.9375H76.5625V32.8125H79.6875V35.9375Z" fill="#333333"/>
<path d="M76.5625 26.5625H92.1875V29.6875H76.5625V26.5625Z" fill="#333333"/>
<path d="M93.75 1.5625H56.25C53.6656 1.5625 51.5625 3.66562 51.5625 6.25V21.1547C47.1531 17.625 41.6391 15.625 35.9375 15.625C22.1531 15.625 10.9375 26.8406 10.9375 40.625C10.9375 54.4094 22.1531 65.625 35.9375 65.625C49.1953 65.625 60.0453 55.2438 60.8578 42.1875H93.75C96.3344 42.1875 98.4375 40.0844 98.4375 37.5V6.25C98.4375 3.66562 96.3344 1.5625 93.75 1.5625ZM35.9375 62.5C23.875 62.5 14.0625 52.6875 14.0625 40.625C14.0625 28.5625 23.875 18.75 35.9375 18.75C41.8094 18.75 47.4625 21.1594 51.5625 25.3484V30.2828C48.2016 25.2219 42.4562 21.875 35.9375 21.875C25.5984 21.875 17.1875 30.2859 17.1875 40.625C17.1875 50.9641 25.5984 59.375 35.9375 59.375C45.8531 59.375 53.9734 51.6344 54.6234 41.8797C55.1328 42.0687 55.6766 42.1875 56.25 42.1875H57.7328C56.9266 53.5203 47.4719 62.5 35.9375 62.5ZM51.5625 40.625C51.5625 49.2406 44.5531 56.25 35.9375 56.25C27.3219 56.25 20.3125 49.2406 20.3125 40.625C20.3125 32.0094 27.3219 25 35.9375 25C44.5531 25 51.5625 32.0094 51.5625 40.625ZM95.3125 37.5C95.3125 38.3625 94.6125 39.0625 93.75 39.0625H56.25C55.3875 39.0625 54.6875 38.3625 54.6875 37.5V6.25C54.6875 5.3875 55.3875 4.6875 56.25 4.6875H93.75C94.6125 4.6875 95.3125 5.3875 95.3125 6.25V37.5Z" fill="#333333"/>
<path d="M32.8117 52.2093L27.0195 46.4171L29.2289 44.2078L32.8117 47.7906L45.7695 34.8328L47.9789 37.0421L32.8117 52.2093Z" fill="#333333"/>
</g>
</g>
<defs>
<clipPath id="clip0">
<rect width="100" height="100" fill="white"/>
</clipPath>
</defs>
</svg>
