<svg width="14" height="18" viewBox="0 0 14 18" fill="none" xmlns="http://www.w3.org/2000/svg">
<path d="M0.333496 9.00008C0.333496 9.2211 0.421294 9.43306 0.577574 9.58934C0.733854 9.74562 0.945816 9.83341 1.16683 9.83341H7.49183L5.57516 11.7417C5.49706 11.8192 5.43506 11.9114 5.39275 12.0129C5.35045 12.1145 5.32866 12.2234 5.32866 12.3334C5.32866 12.4434 5.35045 12.5523 5.39275 12.6539C5.43506 12.7554 5.49706 12.8476 5.57516 12.9251C5.65263 13.0032 5.7448 13.0652 5.84635 13.1075C5.9479 13.1498 6.05682 13.1716 6.16683 13.1716C6.27684 13.1716 6.38576 13.1498 6.48731 13.1075C6.58886 13.0652 6.68103 13.0032 6.7585 12.9251L10.0918 9.59175C10.1677 9.5125 10.2272 9.41904 10.2668 9.31675C10.3502 9.11386 10.3502 8.8863 10.2668 8.68341C10.2272 8.58112 10.1677 8.48767 10.0918 8.40841L6.7585 5.07508C6.6808 4.99738 6.58856 4.93575 6.48704 4.8937C6.38552 4.85165 6.27671 4.83 6.16683 4.83C6.05695 4.83 5.94814 4.85165 5.84662 4.8937C5.7451 4.93575 5.65286 4.99738 5.57516 5.07508C5.49746 5.15278 5.43583 5.24502 5.39378 5.34654C5.35173 5.44806 5.33009 5.55687 5.33009 5.66675C5.33009 5.77663 5.35173 5.88544 5.39378 5.98696C5.43583 6.08847 5.49746 6.18072 5.57516 6.25841L7.49183 8.16675H1.16683C0.945816 8.16675 0.733854 8.25455 0.577574 8.41083C0.421294 8.56711 0.333496 8.77907 0.333496 9.00008ZM11.1668 0.666748H2.8335C2.17045 0.666748 1.53457 0.93014 1.06573 1.39898C0.596888 1.86782 0.333496 2.50371 0.333496 3.16675V5.66675C0.333496 5.88776 0.421294 6.09972 0.577574 6.256C0.733854 6.41228 0.945816 6.50008 1.16683 6.50008C1.38784 6.50008 1.5998 6.41228 1.75608 6.256C1.91237 6.09972 2.00016 5.88776 2.00016 5.66675V3.16675C2.00016 2.94573 2.08796 2.73377 2.24424 2.57749C2.40052 2.42121 2.61248 2.33341 2.8335 2.33341H11.1668C11.3878 2.33341 11.5998 2.42121 11.7561 2.57749C11.9124 2.73377 12.0002 2.94573 12.0002 3.16675V14.8334C12.0002 15.0544 11.9124 15.2664 11.7561 15.4227C11.5998 15.579 11.3878 15.6667 11.1668 15.6667H2.8335C2.61248 15.6667 2.40052 15.579 2.24424 15.4227C2.08796 15.2664 2.00016 15.0544 2.00016 14.8334V12.3334C2.00016 12.1124 1.91237 11.9004 1.75608 11.7442C1.5998 11.5879 1.38784 11.5001 1.16683 11.5001C0.945816 11.5001 0.733854 11.5879 0.577574 11.7442C0.421294 11.9004 0.333496 12.1124 0.333496 12.3334V14.8334C0.333496 15.4965 0.596888 16.1323 1.06573 16.6012C1.53457 17.07 2.17045 17.3334 2.8335 17.3334H11.1668C11.8299 17.3334 12.4658 17.07 12.9346 16.6012C13.4034 16.1323 13.6668 15.4965 13.6668 14.8334V3.16675C13.6668 2.50371 13.4034 1.86782 12.9346 1.39898C12.4658 0.93014 11.8299 0.666748 11.1668 0.666748Z" fill="#111111"/>
</svg>
