<svg width="14" height="15" viewBox="0 0 14 15" fill="none" xmlns="http://www.w3.org/2000/svg">
<path d="M13.3438 7.91406C13.3438 9.84635 12.7331 11.4323 11.5117 12.6719C10.3086 13.9115 8.73177 14.5312 6.78125 14.5312C4.90365 14.5312 3.29948 13.875 1.96875 12.5625C0.65625 11.2318 0 9.6276 0 7.75C0 5.8724 0.65625 4.27734 1.96875 2.96484C3.29948 1.63411 4.90365 0.96875 6.78125 0.96875C8.54948 0.96875 10.0625 1.5612 11.3203 2.74609L9.48828 4.52344C8.90495 3.95833 8.20312 3.63021 7.38281 3.53906C6.58073 3.42969 5.82422 3.52995 5.11328 3.83984C4.42057 4.13151 3.81901 4.63281 3.30859 5.34375C2.81641 6.03646 2.57031 6.83854 2.57031 7.75C2.57031 8.9349 2.98047 9.94661 3.80078 10.7852C4.62109 11.6237 5.61458 12.043 6.78125 12.043C7.41927 12.043 7.98438 11.9427 8.47656 11.7422C8.98698 11.5234 9.37891 11.2591 9.65234 10.9492C9.94401 10.6211 10.1628 10.3021 10.3086 9.99219C10.4727 9.68229 10.582 9.39062 10.6367 9.11719H6.78125V6.76562H13.2344C13.3073 7.16667 13.3438 7.54948 13.3438 7.91406Z" fill="#D15249"/>
</svg>
