<svg width="32" height="36" viewBox="0 0 32 36" fill="none" xmlns="http://www.w3.org/2000/svg">
<path d="M6 1.33325L1 7.99992V31.3333C1 32.2173 1.35119 33.0652 1.97631 33.6903C2.60143 34.3154 3.44928 34.6666 4.33333 34.6666H27.6667C28.5507 34.6666 29.3986 34.3154 30.0237 33.6903C30.6488 33.0652 31 32.2173 31 31.3333V7.99992L26 1.33325H6Z" stroke="#111111" stroke-width="1" fill="none" stroke-linecap="round" stroke-linejoin="round"/>
<path d="M1 8H31" fill="none" stroke="#111111" stroke-width="1" stroke-linecap="round" stroke-linejoin="round"/>
<path d="M22.6683 14.6665C22.6683 16.4346 21.9659 18.1303 20.7157 19.3806C19.4654 20.6308 17.7697 21.3332 16.0016 21.3332C14.2335 21.3332 12.5378 20.6308 11.2876 19.3806C10.0373 18.1303 9.33496 16.4346 9.33496 14.6665" fill="none" stroke="#111111" stroke-width="1" stroke-linecap="round" stroke-linejoin="round"/>
</svg>
