<svg width="20" height="20" viewBox="0 0 20 20" fill="none" xmlns="http://www.w3.org/2000/svg">
<path d="M15 13.442C14.367 13.442 13.796 13.688 13.363 14.084L7.425 10.621C7.471 10.433 7.5 10.237 7.5 10.037C7.5 9.83701 7.471 9.64201 7.425 9.45401L13.3 6.02501C13.76 6.4584 14.368 6.69983 15 6.70001C16.379 6.70001 17.5 5.57901 17.5 4.20001C17.5 2.82101 16.379 1.70001 15 1.70001C13.621 1.70001 12.5 2.82101 12.5 4.20001C12.5 4.40001 12.529 4.59601 12.575 4.78301L6.7 8.21201C6.23976 7.77906 5.63188 7.53769 5 7.53701C3.621 7.53701 2.5 8.65801 2.5 10.037C2.5 11.416 3.621 12.537 5 12.537C5.63197 12.5368 6.24004 12.2954 6.7 11.862L12.638 15.325C12.5943 15.5037 12.5718 15.687 12.571 15.871C12.5712 16.3511 12.7137 16.8204 12.9806 17.2196C13.2475 17.6187 13.6267 17.9297 14.0703 18.1134C14.5139 18.297 15.002 18.345 15.4729 18.2513C15.9438 18.1576 16.3764 17.9264 16.7159 17.5869C17.0554 17.2474 17.2866 16.8148 17.3803 16.3439C17.474 15.873 17.426 15.3849 17.2424 14.9413C17.0587 14.4977 16.7477 14.1185 16.3485 13.8516C15.9494 13.5848 15.4801 13.4422 15 13.442Z" fill="#999999"/>
</svg>
