<svg width="16" height="17" viewBox="0 0 16 17" fill="none" xmlns="http://www.w3.org/2000/svg">
<path d="M14.0557 0.722168H5.16678C4.87209 0.722168 4.58947 0.839231 4.3811 1.0476C4.17273 1.25598 4.05566 1.53859 4.05566 1.83328H14.0557V15.1666H5.16678V9.72217H4.05566V15.1666C4.05566 15.4613 4.17273 15.7439 4.3811 15.9523C4.58947 16.1607 4.87209 16.2777 5.16678 16.2777H14.0557C14.3503 16.2777 14.633 16.1607 14.8413 15.9523C15.0497 15.7439 15.1668 15.4613 15.1668 15.1666V1.83328C15.1668 1.53859 15.0497 1.25598 14.8413 1.0476C14.633 0.839231 14.3503 0.722168 14.0557 0.722168Z" fill="#999999"/>
<path d="M6.90032 8.75551C6.84217 8.80532 6.79494 8.8666 6.76159 8.93553C6.72824 9.00445 6.7095 9.07953 6.70655 9.15604C6.70359 9.23255 6.71649 9.30885 6.74442 9.38014C6.77235 9.45143 6.81471 9.51618 6.86885 9.57032C6.92299 9.62446 6.98774 9.66682 7.05903 9.69476C7.13033 9.72269 7.20662 9.73558 7.28313 9.73262C7.35964 9.72967 7.43472 9.71093 7.50364 9.67758C7.57257 9.64424 7.63385 9.597 7.68366 9.53885L10.9003 6.32218L7.68921 3.10551C7.58294 3.0145 7.44623 2.96694 7.30641 2.97234C7.16659 2.97774 7.03395 3.0357 6.93501 3.13464C6.83607 3.23358 6.77811 3.36622 6.77271 3.50604C6.76731 3.64586 6.81487 3.78257 6.90588 3.88884L8.7781 5.72218H0.722548C0.575205 5.72218 0.433897 5.78071 0.329711 5.8849C0.225524 5.98908 0.166992 6.13039 0.166992 6.27773C0.166992 6.42508 0.225524 6.56638 0.329711 6.67057C0.433897 6.77476 0.575205 6.83329 0.722548 6.83329H8.7781L6.90032 8.75551Z" fill="#999999"/>
</svg>
