<svg width="10" height="6" viewBox="0 0 10 6" fill="none" xmlns="http://www.w3.org/2000/svg">
<path d="M1.76664 0.741398L4.99997 3.97473L8.2333 0.741398C8.31045 0.664246 8.40205 0.603046 8.50285 0.561292C8.60365 0.519538 8.71169 0.498047 8.8208 0.498047C8.92991 0.498047 9.03795 0.519538 9.13875 0.561292C9.23956 0.603046 9.33115 0.664246 9.4083 0.741398C9.48545 0.818549 9.54665 0.910141 9.58841 1.01094C9.63016 1.11175 9.65165 1.21979 9.65165 1.3289C9.65165 1.43801 9.63016 1.54605 9.58841 1.64685C9.54665 1.74765 9.48545 1.83925 9.4083 1.9164L5.5833 5.7414C5.50621 5.81865 5.41463 5.87994 5.31382 5.92176C5.21301 5.96357 5.10494 5.9851 4.9958 5.9851C4.88666 5.9851 4.77859 5.96357 4.67778 5.92176C4.57697 5.87994 4.4854 5.81865 4.4083 5.7414L0.583303 1.9164C0.50605 1.8393 0.44476 1.74773 0.402942 1.64692C0.361124 1.54611 0.3396 1.43804 0.3396 1.3289C0.3396 1.21976 0.361124 1.11169 0.402942 1.01088C0.44476 0.910066 0.50605 0.818492 0.583303 0.741398C0.908303 0.424731 1.44164 0.416398 1.76664 0.741398Z" fill="#999999"/>
</svg>
