<svg width="226" height="42" viewBox="0 0 226 42" fill="none" xmlns="http://www.w3.org/2000/svg">
<path d="M55.7058 17.8356L59.5126 5.2041H63.3655L57.5169 22H53.9062L48.0807 5.2041H51.9221L55.7058 17.8356ZM75.0626 14.721H68.4181V19.2199H76.2162V22H64.9574V5.2041H76.1931V8.00726H68.4181V12.0101H75.0626V14.721ZM91.5355 19.8774C90.9126 20.6234 90.032 21.204 88.8939 21.6193C87.7557 22.0269 86.4944 22.2307 85.1102 22.2307C83.6567 22.2307 82.3801 21.9154 81.2803 21.2848C80.1883 20.6465 79.3423 19.7236 78.7425 18.5162C78.1503 17.3088 77.8466 15.89 77.8312 14.2596V13.1176C77.8312 11.441 78.1119 9.99139 78.6733 8.76862C79.2424 7.53815 80.0576 6.59991 81.1188 5.95392C82.1878 5.30023 83.4375 4.97339 84.8679 4.97339C86.8597 4.97339 88.4171 5.4502 89.5399 6.40381C90.6627 7.34973 91.3279 8.73016 91.5355 10.5451H88.1671C88.0133 9.5838 87.6711 8.88013 87.1404 8.43408C86.6175 7.98804 85.8946 7.76501 84.9717 7.76501C83.7951 7.76501 82.8992 8.20721 82.2839 9.09161C81.6687 9.97601 81.3572 11.2911 81.3495 13.0368V14.1096C81.3495 15.8707 81.6841 17.2012 82.3531 18.101C83.0222 19.0007 84.0027 19.4506 85.2947 19.4506C86.5944 19.4506 87.5211 19.1738 88.0748 18.6201V15.7246H84.9256V13.1752H91.5355V19.8774ZM103.833 18.5393H97.7648L96.6112 22H92.9313L99.1837 5.2041H102.391L108.677 22H104.998L103.833 18.5393ZM98.6992 15.7361H102.898L100.787 9.44922L98.6992 15.7361ZM122.751 5.2041V16.2668C122.751 18.1048 122.174 19.5583 121.021 20.6273C119.875 21.6962 118.306 22.2307 116.314 22.2307C114.353 22.2307 112.796 21.7116 111.642 20.6734C110.489 19.6352 109.9 18.2086 109.877 16.3937V5.2041H113.338V16.2899C113.338 17.3896 113.599 18.1932 114.122 18.7008C114.653 19.2007 115.384 19.4506 116.314 19.4506C118.26 19.4506 119.248 18.4278 119.279 16.3821V5.2041H122.751ZM138.232 8.00726H133.087V22H129.626V8.00726H124.551V5.2041H138.232V8.00726ZM153.69 13.9827C153.69 15.6362 153.397 17.0858 152.813 18.3317C152.228 19.5775 151.39 20.5388 150.298 21.2156C149.214 21.8923 147.968 22.2307 146.561 22.2307C145.169 22.2307 143.927 21.8962 142.835 21.2271C141.742 20.558 140.897 19.6044 140.297 18.3663C139.697 17.1204 139.393 15.69 139.385 14.075V13.2444C139.385 11.591 139.681 10.1375 140.274 8.88397C140.873 7.62274 141.716 6.65759 142.8 5.98853C143.892 5.31177 145.138 4.97339 146.537 4.97339C147.937 4.97339 149.179 5.31177 150.263 5.98853C151.356 6.65759 152.198 7.62274 152.79 8.88397C153.39 10.1375 153.69 11.5872 153.69 13.2329V13.9827ZM150.183 13.2214C150.183 11.4603 149.867 10.1221 149.237 9.20697C148.606 8.29181 147.706 7.83423 146.537 7.83423C145.376 7.83423 144.48 8.28796 143.85 9.19543C143.219 10.0952 142.9 11.418 142.892 13.1637V13.9827C142.892 15.6977 143.208 17.0281 143.838 17.9741C144.469 18.92 145.376 19.3929 146.561 19.3929C147.722 19.3929 148.614 18.9392 149.237 18.0317C149.86 17.1166 150.175 15.7861 150.183 14.0404V13.2214ZM159.884 22H156.424V5.2041H159.884V22ZM167.625 5.2041L171.939 17.3857L176.23 5.2041H180.775V22H177.303V17.4088L177.649 9.48383L173.116 22H170.739L166.217 9.49536L166.563 17.4088V22H163.103V5.2041H167.625ZM187.258 16.0822V22H183.798V5.2041H190.35C191.611 5.2041 192.719 5.43481 193.672 5.89624C194.633 6.35767 195.372 7.0152 195.887 7.86884C196.402 8.71478 196.66 9.67993 196.66 10.7643C196.66 12.41 196.095 13.7097 194.964 14.6633C193.841 15.6093 192.284 16.0822 190.292 16.0822H187.258ZM187.258 13.2791H190.35C191.265 13.2791 191.961 13.0637 192.438 12.6331C192.922 12.2024 193.165 11.5872 193.165 10.7874C193.165 9.96448 192.922 9.29926 192.438 8.79169C191.953 8.28412 191.284 8.02264 190.431 8.00726H187.258V13.2791ZM209.153 14.721H202.508V19.2199H210.307V22H199.048V5.2041H210.283V8.00726H202.508V12.0101H209.153V14.721ZM218.347 10.995L221.496 5.2041H225.476L220.585 13.5328L225.603 22H221.577L218.347 16.1168L215.117 22H211.091L216.109 13.5328L211.218 5.2041H215.198L218.347 10.995Z" fill="#F8F8F8"/>
<rect x="48" y="27" width="178" height="14" rx="4" fill="#FFD200"/>
<path d="M79.6484 36.5352H77.0801L76.5918 38H75.0342L77.6807 30.8906H79.0381L81.6992 38H80.1416L79.6484 36.5352ZM77.4756 35.3486H79.2529L78.3594 32.6875L77.4756 35.3486ZM86.3633 38V30.8906H88.8535C89.7161 30.8906 90.3704 31.0566 90.8164 31.3887C91.2624 31.7174 91.4854 32.2008 91.4854 32.8389C91.4854 33.1872 91.3958 33.4948 91.2168 33.7617C91.0378 34.0254 90.7887 34.2191 90.4697 34.3428C90.8343 34.4339 91.1208 34.6178 91.3291 34.8945C91.5407 35.1712 91.6465 35.5098 91.6465 35.9102C91.6465 36.5938 91.4284 37.1113 90.9922 37.4629C90.556 37.8145 89.9342 37.9935 89.127 38H86.3633ZM87.8281 34.9043V36.8232H89.083C89.4281 36.8232 89.6966 36.7419 89.8887 36.5791C90.084 36.4131 90.1816 36.1852 90.1816 35.8955C90.1816 35.2445 89.8447 34.9141 89.1709 34.9043H87.8281ZM87.8281 33.8691H88.9121C89.651 33.8561 90.0205 33.5615 90.0205 32.9854C90.0205 32.6631 89.9261 32.432 89.7373 32.292C89.5518 32.1488 89.2572 32.0771 88.8535 32.0771H87.8281V33.8691ZM101.965 32.0771H99.7871V38H98.3223V32.0771H96.1738V30.8906H101.965V32.0771ZM112.508 34.6064C112.508 35.3063 112.384 35.9199 112.137 36.4473C111.889 36.9746 111.535 37.3815 111.072 37.668C110.613 37.9544 110.086 38.0977 109.49 38.0977C108.901 38.0977 108.375 37.9561 107.913 37.6729C107.451 37.3896 107.093 36.986 106.839 36.4619C106.585 35.9346 106.456 35.3291 106.453 34.6455V34.2939C106.453 33.5941 106.578 32.9788 106.829 32.4482C107.083 31.9144 107.439 31.5059 107.898 31.2227C108.361 30.9362 108.888 30.793 109.48 30.793C110.073 30.793 110.599 30.9362 111.058 31.2227C111.52 31.5059 111.876 31.9144 112.127 32.4482C112.381 32.9788 112.508 33.5924 112.508 34.2891V34.6064ZM111.023 34.2842C111.023 33.5387 110.89 32.9723 110.623 32.585C110.356 32.1976 109.975 32.0039 109.48 32.0039C108.989 32.0039 108.61 32.196 108.343 32.5801C108.076 32.9609 107.941 33.5208 107.938 34.2598V34.6064C107.938 35.3324 108.071 35.8955 108.338 36.2959C108.605 36.6963 108.989 36.8965 109.49 36.8965C109.982 36.8965 110.359 36.7044 110.623 36.3203C110.887 35.9329 111.02 35.3698 111.023 34.6309V34.2842ZM121.078 32.8486C121.078 32.5785 120.972 32.3669 120.761 32.2139C120.549 32.0576 120.269 31.9795 119.921 31.9795C119.608 31.9795 119.348 32.0576 119.14 32.2139C118.935 32.3669 118.832 32.5671 118.832 32.8145H117.367C117.367 32.4303 117.475 32.0853 117.689 31.7793C117.908 31.4701 118.215 31.2292 118.612 31.0566C119.013 30.8841 119.449 30.7979 119.921 30.7979C120.741 30.7979 121.384 30.9736 121.85 31.3252C122.315 31.6768 122.548 32.1748 122.548 32.8193C122.548 33.1351 122.452 33.4281 122.26 33.6982C122.071 33.9684 121.801 34.1849 121.449 34.3477C121.84 34.4844 122.139 34.6927 122.348 34.9727C122.556 35.2493 122.66 35.5944 122.66 36.0078C122.66 36.6458 122.41 37.1536 121.908 37.5312C121.41 37.9056 120.748 38.0928 119.921 38.0928C119.403 38.0928 118.938 38.0049 118.524 37.8291C118.111 37.6501 117.797 37.4076 117.582 37.1016C117.37 36.7923 117.265 36.4342 117.265 36.0273H118.739C118.739 36.2812 118.85 36.4945 119.071 36.667C119.293 36.8363 119.576 36.9209 119.921 36.9209C120.312 36.9209 120.619 36.833 120.844 36.6572C121.072 36.4814 121.186 36.2585 121.186 35.9883C121.186 35.6172 121.085 35.3519 120.883 35.1924C120.681 35.0296 120.386 34.9482 119.999 34.9482H119.125V33.8008H120.028C120.728 33.791 121.078 33.4736 121.078 32.8486ZM131.758 36.5352H129.189L128.701 38H127.144L129.79 30.8906H131.147L133.809 38H132.251L131.758 36.5352ZM129.585 35.3486H131.362L130.469 32.6875L129.585 35.3486ZM144.264 38H142.794V32.0771H139.947V38H138.482V30.8906H144.264V38ZM155.227 30.8906V38H153.757V35.3047C153.311 35.3991 152.845 35.4463 152.36 35.4463C151.459 35.4463 150.773 35.2493 150.305 34.8555C149.839 34.4616 149.6 33.8919 149.587 33.1465V30.8906H151.057V33.1172C151.06 33.5241 151.158 33.8171 151.35 33.9961C151.545 34.1751 151.882 34.2646 152.36 34.2646C152.845 34.2646 153.311 34.2174 153.757 34.123V30.8906H155.227ZM164.607 36.5352H162.039L161.551 38H159.993L162.64 30.8906H163.997L166.658 38H165.101L164.607 36.5352ZM162.435 35.3486H164.212L163.318 32.6875L162.435 35.3486ZM176.796 35.6318C176.741 36.3968 176.457 36.999 175.946 37.4385C175.438 37.8779 174.768 38.0977 173.935 38.0977C173.023 38.0977 172.305 37.7917 171.781 37.1797C171.26 36.5645 171 35.7214 171 34.6504V34.2158C171 33.5322 171.12 32.93 171.361 32.4092C171.602 31.8883 171.946 31.4896 172.392 31.2129C172.841 30.9329 173.362 30.793 173.954 30.793C174.774 30.793 175.435 31.0127 175.937 31.4521C176.438 31.8916 176.728 32.5085 176.806 33.3027H175.341C175.305 32.8438 175.176 32.5117 174.955 32.3066C174.737 32.0983 174.403 31.9941 173.954 31.9941C173.466 31.9941 173.1 32.1699 172.855 32.5215C172.615 32.8698 172.491 33.4118 172.484 34.1475V34.6846C172.484 35.4528 172.6 36.0143 172.831 36.3691C173.065 36.724 173.433 36.9014 173.935 36.9014C174.387 36.9014 174.724 36.7988 174.945 36.5938C175.17 36.3854 175.299 36.0648 175.331 35.6318H176.796ZM186.963 32.0771H184.785V38H183.32V32.0771H181.172V30.8906H186.963V32.0771ZM196.065 30.8906H197.535V38H196.065V33.2783L193.219 38H191.754V30.8906H193.219V35.6221L196.065 30.8906Z" fill="#111111"/>
<g clip-path="url(#clip0)">
<path d="M39.0064 18.2793L35.437 17.8506C35.0722 16.489 34.5378 15.2027 33.8498 14.0091L36.069 11.1884C36.4081 10.7549 36.3697 10.0845 35.9778 9.69409L32.2995 6.01424C31.9123 5.62545 31.2404 5.58386 30.8052 5.92304L27.9797 8.14535C26.7909 7.45738 25.5046 6.923 24.1462 6.56142L23.7191 2.99196C23.6535 2.44638 23.1495 2 22.5991 2H17.3961C16.8457 2 16.3417 2.44638 16.2778 2.99196L15.849 6.56142C14.489 6.9246 13.2011 7.46058 12.0123 8.14695L9.18843 5.92784C8.75645 5.58866 8.08448 5.62865 7.69569 6.01744L4.01584 9.69889C3.62865 10.0861 3.58866 10.758 3.92944 11.1932L6.14695 14.0155C5.45898 15.2059 4.9246 16.4938 4.56142 17.8554L0.99356 18.2825C0.447982 18.3465 0 18.8505 0 19.4025V24.6055C0 25.1559 0.446382 25.6567 0.99356 25.7239L4.56302 26.1526C4.9278 27.5094 5.46058 28.7957 6.14855 29.9861L3.93104 32.8116C3.59346 33.2451 3.63185 33.9155 4.02224 34.3059L7.69569 37.9874C8.08448 38.3745 8.75645 38.4177 9.18843 38.0786L12.0139 35.8546C13.2043 36.5426 14.4906 37.0786 15.8506 37.4402L16.2794 41.008C16.3449 41.5552 16.8473 42 17.3977 42H22.6007C23.1527 42 23.6551 41.5552 23.7191 41.008L24.1478 37.4402C25.5094 37.0754 26.7957 36.541 27.9845 35.8546L30.81 38.0738C31.2436 38.4129 31.9139 38.3729 32.3027 37.9842L35.981 34.3027C36.3713 33.9155 36.4113 33.2435 36.0706 32.8068L33.8498 29.9845C34.5394 28.7941 35.0722 27.5078 35.437 26.1494L39.0048 25.7207C39.552 25.6551 39.9984 25.1559 39.9984 24.6023V19.3993C40 18.8457 39.5552 18.3449 39.0064 18.2793ZM20.0008 31.9988C14.4778 31.9988 10.0012 27.5222 10.0012 21.9992C10.0012 16.4762 14.4778 11.9996 20.0008 11.9996C25.5238 11.9996 30.0004 16.4762 30.0004 21.9992C30.0004 27.5222 25.5254 31.9988 20.0008 31.9988Z" fill="#F8F8F8"/>
<circle cx="20" cy="22" r="12" fill="#111111"/>
<path d="M27.7782 14.2218C25.7005 12.1442 22.9382 11 20 11C17.0618 11 14.2995 12.1442 12.2218 14.2218C10.1442 16.2995 9 19.0618 9 22C9 24.9382 10.1442 27.7005 12.2218 29.7782C14.2995 31.8558 17.0618 33 20 33C22.9382 33 25.7005 31.8558 27.7782 29.7782C29.8558 27.7005 31 24.9382 31 22C31 19.0618 29.8558 16.2995 27.7782 14.2218ZM20 31.7109C14.6454 31.7109 10.2891 27.3546 10.2891 22C10.2891 16.6454 14.6454 12.2891 20 12.2891C25.3546 12.2891 29.7109 16.6454 29.7109 22C29.7109 27.3546 25.3546 31.7109 20 31.7109Z" fill="#F8F8F8"/>
<path d="M17.2131 23.609C16.8769 23.0267 16.3159 22.6754 15.6739 22.6453L11.5692 22.6445L11.6946 23.3952C11.8602 24.3876 12.2007 25.335 12.7065 26.2109C13.2122 27.0869 13.8624 27.8554 14.639 28.4951L15.2264 28.979L17.2665 25.4455L17.2792 25.4178C17.5459 24.8347 17.5206 24.1416 17.2131 23.609ZM16.1171 24.8582L14.8922 26.9797C14.4798 26.5571 14.1216 26.0839 13.8228 25.5664C13.5239 25.0488 13.2933 24.502 13.1335 23.9336H15.6259C15.8234 23.9469 15.9818 24.0545 16.0967 24.2535C16.1908 24.4163 16.1982 24.6614 16.1171 24.8582Z" fill="#F8F8F8"/>
<path d="M21.6171 26.09L21.5995 26.0651C21.2279 25.5426 20.615 25.218 20.0001 25.218C19.3276 25.218 18.7429 25.5282 18.3959 26.0691L16.3429 29.6236L17.0557 29.8904C17.9979 30.243 18.9885 30.4219 20.0001 30.4219C21.0115 30.4219 22.0021 30.243 22.9445 29.8904L23.6573 29.6236L21.6171 26.09ZM20.0001 29.1328C19.4024 29.1328 18.8136 29.0592 18.2414 28.9133L19.4876 26.7549C19.5979 26.5904 19.7702 26.5071 20.0001 26.5071C20.188 26.5071 20.404 26.6231 20.5339 26.7918L21.7587 28.9133C21.1865 29.0592 20.5977 29.1328 20.0001 29.1328Z" fill="#F8F8F8"/>
<path d="M24.3507 22.6445L24.3204 22.6475C23.6821 22.708 23.0945 23.0765 22.787 23.609C22.4507 24.1913 22.427 24.8528 22.7219 25.4239L24.7737 28.979L25.3611 28.4951C26.1377 27.8554 26.7879 27.0869 27.2936 26.2109C27.7994 25.335 28.1398 24.3876 28.3055 23.3952L28.4309 22.6445H24.3507ZM25.1078 26.9797L23.8617 24.8213C23.7744 24.6436 23.7884 24.4527 23.9033 24.2536C23.9973 24.0908 24.2058 23.9618 24.4168 23.9337H26.8665C26.7068 24.5021 26.4761 25.0489 26.1773 25.5665C25.8785 26.084 25.5203 26.5571 25.1078 26.9797Z" fill="#F8F8F8"/>
<path d="M28.3055 20.6048C28.1398 19.6124 27.7993 18.665 27.2936 17.789C26.7879 16.9131 26.1377 16.1446 25.3611 15.5049L24.7737 15.021L22.7335 18.5545L22.7209 18.5822C22.4542 19.1652 22.4795 19.8583 22.787 20.391C23.1232 20.9733 23.6842 21.3246 24.3261 21.3547L28.4309 21.3554L28.3055 20.6048ZM24.3742 20.0664C24.1766 20.0531 24.0183 19.9455 23.9034 19.7464C23.8093 19.5837 23.8019 19.3386 23.883 19.1418L25.1079 17.0203C25.5203 17.4429 25.8785 17.9161 26.1773 18.4336C26.4761 18.9511 26.7068 19.498 26.8665 20.0664H24.3742Z" fill="#F8F8F8"/>
<path d="M22.9444 14.1096C22.0021 13.757 21.0115 13.5781 20 13.5781C18.9885 13.5781 17.9979 13.757 17.0556 14.1096L16.3428 14.3764L18.3829 17.91L18.4005 17.9349C18.7721 18.4574 19.385 18.782 20 18.782C20.6724 18.782 21.2571 18.4718 21.6042 17.9309L23.6571 14.3764L22.9444 14.1096ZM20.5125 17.2451C20.4022 17.4096 20.2298 17.4929 20 17.4929C19.812 17.4929 19.5961 17.3769 19.4662 17.2082L18.2413 15.0867C18.8135 14.9408 19.4024 14.8672 20 14.8672C20.5976 14.8672 21.1865 14.9408 21.7586 15.0867L20.5125 17.2451Z" fill="#F8F8F8"/>
<path d="M17.2782 18.5761L15.2264 15.021L14.639 15.5049C13.8624 16.1446 13.2122 16.9131 12.7064 17.789C12.2007 18.665 11.8602 19.6124 11.6945 20.6048L11.5692 21.3554H15.6494L15.6797 21.3526C16.318 21.292 16.9056 20.9236 17.2131 20.391C17.5493 19.8087 17.5731 19.1472 17.2782 18.5761ZM16.0967 19.7464C16.0028 19.9092 15.7943 20.0382 15.5833 20.0663H13.1336C13.2933 19.4979 13.524 18.9511 13.8228 18.4336C14.1216 17.9161 14.4798 17.4429 14.8922 17.0203L16.1384 19.1787C16.2257 19.3565 16.2117 19.5474 16.0967 19.7464Z" fill="#F8F8F8"/>
<path d="M20 20.0664C18.9338 20.0664 18.0664 20.9338 18.0664 22C18.0664 23.0662 18.9338 23.9336 20 23.9336C21.0662 23.9336 21.9336 23.0662 21.9336 22C21.9336 20.9338 21.0662 20.0664 20 20.0664ZM20 22.6445C19.6446 22.6445 19.3555 22.3554 19.3555 22C19.3555 21.6446 19.6446 21.3555 20 21.3555C20.3554 21.3555 20.6445 21.6446 20.6445 22C20.6445 22.3554 20.3554 22.6445 20 22.6445Z" fill="#F8F8F8"/>
</g>
<defs>
<clipPath id="clip0">
<rect width="39.9984" height="40" fill="white" transform="translate(0 2)"/>
</clipPath>
</defs>
</svg>
