<svg width="270" height="51" viewBox="0 0 270 51" fill="none" xmlns="http://www.w3.org/2000/svg">
<path d="M66.5511 21.0249L71.0991 5.9341H75.7021L68.7148 26H64.4012L57.4416 5.9341H62.0308L66.5511 21.0249ZM89.6765 17.3039H81.7384V22.6787H91.0547V26H77.6039V5.9341H91.0271V9.28301H81.7384V14.0652H89.6765V17.3039ZM109.357 23.4642C108.612 24.3554 107.56 25.0491 106.201 25.5452C104.841 26.0322 103.334 26.2756 101.68 26.2756C99.9438 26.2756 98.4186 25.8989 97.1048 25.1455C95.8001 24.383 94.7895 23.2804 94.0728 21.838C93.3654 20.3955 93.0025 18.7004 92.9841 16.7526V15.3882C92.9841 13.3853 93.3195 11.6534 93.9902 10.1926C94.67 8.72257 95.6439 7.60167 96.9118 6.8299C98.1889 6.04895 99.6819 5.65847 101.391 5.65847C103.77 5.65847 105.631 6.22811 106.972 7.36738C108.314 8.49747 109.108 10.1467 109.357 12.3149H105.332C105.149 11.1665 104.74 10.3258 104.106 9.79293C103.481 9.26005 102.617 8.9936 101.515 8.9936C100.109 8.9936 99.0388 9.52189 98.3038 10.5785C97.5688 11.6351 97.1967 13.2062 97.1875 15.2918V16.5734C97.1875 18.6774 97.5871 20.2669 98.3865 21.3418C99.1858 22.4168 100.357 22.9543 101.901 22.9543C103.453 22.9543 104.561 22.6235 105.222 21.962V18.5029H101.46V15.4571H109.357V23.4642ZM124.048 21.8655H116.799L115.42 26H111.024L118.494 5.9341H122.325L129.836 26H125.44L124.048 21.8655ZM117.915 18.5166H122.931L120.409 11.0057L117.915 18.5166ZM146.649 5.9341V19.1506C146.649 21.3464 145.96 23.0829 144.582 24.36C143.213 25.6371 141.339 26.2756 138.959 26.2756C136.616 26.2756 134.756 25.6555 133.378 24.4151C132 23.1748 131.297 21.4705 131.269 19.3022V5.9341H135.404V19.1781C135.404 20.492 135.716 21.4521 136.341 22.0585C136.975 22.6557 137.848 22.9543 138.959 22.9543C141.284 22.9543 142.464 21.7323 142.501 19.2884V5.9341H146.649ZM165.144 9.28301H158.998V26H154.863V9.28301H148.799V5.9341H165.144V9.28301ZM183.611 16.4218C183.611 18.3972 183.262 20.1291 182.564 21.6175C181.866 23.1059 180.864 24.2543 179.56 25.0629C178.264 25.8714 176.776 26.2756 175.094 26.2756C173.431 26.2756 171.948 25.876 170.643 25.0766C169.338 24.2773 168.328 23.138 167.611 21.6588C166.894 20.1704 166.531 18.4615 166.522 16.5321V15.5398C166.522 13.5645 166.876 11.828 167.583 10.3304C168.3 8.82363 169.306 7.67058 170.602 6.87125C171.906 6.06273 173.395 5.65847 175.067 5.65847C176.739 5.65847 178.223 6.06273 179.518 6.87125C180.823 7.67058 181.829 8.82363 182.536 10.3304C183.253 11.828 183.611 13.5599 183.611 15.526V16.4218ZM179.422 15.5123C179.422 13.4083 179.045 11.8096 178.292 10.7163C177.538 9.62296 176.463 9.07629 175.067 9.07629C173.68 9.07629 172.609 9.61836 171.856 10.7025C171.102 11.7775 170.721 13.3578 170.712 15.4434V16.4218C170.712 18.4707 171.089 20.0602 171.842 21.1902C172.595 22.3203 173.68 22.8854 175.094 22.8854C176.482 22.8854 177.548 22.3433 178.292 21.2592C179.036 20.1658 179.413 18.5764 179.422 16.4908V15.5123ZM191.012 26H186.878V5.9341H191.012V26ZM200.259 5.9341L205.414 20.4874L210.54 5.9341H215.97V26H211.822V20.515L212.236 11.047L206.819 26H203.98L198.578 11.0608L198.992 20.515V26H194.857V5.9341H200.259ZM223.716 18.9301V26H219.581V5.9341H227.409C228.916 5.9341 230.239 6.20974 231.378 6.761C232.527 7.31226 233.409 8.0978 234.024 9.11764C234.64 10.1283 234.948 11.2813 234.948 12.5768C234.948 14.543 234.272 16.0957 232.922 17.235C231.58 18.365 229.72 18.9301 227.34 18.9301H223.716ZM223.716 15.5812H227.409C228.502 15.5812 229.334 15.3239 229.904 14.8094C230.482 14.2949 230.772 13.5599 230.772 12.6044C230.772 11.6213 230.482 10.8265 229.904 10.2202C229.325 9.61377 228.525 9.30139 227.506 9.28301H223.716V15.5812ZM249.873 17.3039H241.935V22.6787H251.251V26H237.8V5.9341H251.224V9.28301H241.935V14.0652H249.873V17.3039ZM260.857 12.8524L264.619 5.9341H269.374L263.53 15.8844L269.525 26H264.716L260.857 18.9714L256.998 26H252.188L258.183 15.8844L252.34 5.9341H257.094L260.857 12.8524Z" fill="#111111"/>
<rect x="57.3451" y="32.2566" width="212.655" height="16.7257" rx="4.77876" fill="#FFD200"/>
<path d="M95.5533 43.25H92.4849L91.9016 45H90.0407L93.2024 36.5065H94.8241L98.0034 45H96.1425L95.5533 43.25ZM92.9574 41.8324H95.0808L94.0133 38.6532L92.9574 41.8324ZM103.575 45V36.5065H106.551C107.581 36.5065 108.363 36.7048 108.896 37.1015C109.428 37.4943 109.695 38.0718 109.695 38.834C109.695 39.2502 109.588 39.6177 109.374 39.9366C109.16 40.2516 108.863 40.483 108.481 40.6307C108.917 40.7396 109.259 40.9594 109.508 41.2899C109.761 41.6205 109.887 42.0249 109.887 42.5033C109.887 43.32 109.627 43.9383 109.106 44.3583C108.584 44.7783 107.842 44.9922 106.877 45H103.575ZM105.326 41.3016V43.5941H106.825C107.237 43.5941 107.558 43.4969 107.787 43.3025C108.021 43.1041 108.137 42.8319 108.137 42.4858C108.137 41.708 107.735 41.3133 106.93 41.3016H105.326ZM105.326 40.0649H106.621C107.503 40.0493 107.945 39.6974 107.945 39.009C107.945 38.624 107.832 38.3479 107.606 38.1807C107.385 38.0096 107.033 37.924 106.551 37.924H105.326V40.0649ZM122.215 37.924H119.613V45H117.863V37.924H115.296V36.5065H122.215V37.924ZM134.81 40.9458C134.81 41.7819 134.662 42.515 134.367 43.145C134.071 43.775 133.647 44.2611 133.095 44.6033C132.547 44.9456 131.917 45.1167 131.205 45.1167C130.501 45.1167 129.873 44.9475 129.321 44.6092C128.769 44.2708 128.341 43.7886 128.037 43.1625C127.734 42.5325 127.581 41.8091 127.577 40.9924V40.5724C127.577 39.7363 127.726 39.0013 128.026 38.3674C128.329 37.7296 128.755 37.2415 129.303 36.9032C129.856 36.5609 130.486 36.3898 131.193 36.3898C131.901 36.3898 132.529 36.5609 133.078 36.9032C133.63 37.2415 134.056 37.7296 134.355 38.3674C134.658 39.0013 134.81 39.7343 134.81 40.5666V40.9458ZM133.037 40.5607C133.037 39.6702 132.877 38.9935 132.558 38.5307C132.239 38.0679 131.784 37.8365 131.193 37.8365C130.606 37.8365 130.153 38.066 129.834 38.5249C129.515 38.9799 129.354 39.6488 129.35 40.5316V40.9458C129.35 41.813 129.509 42.4858 129.828 42.9641C130.147 43.4425 130.606 43.6816 131.205 43.6816C131.792 43.6816 132.243 43.4522 132.558 42.9933C132.873 42.5305 133.033 41.8577 133.037 40.9749V40.5607ZM145.049 38.8457C145.049 38.5229 144.923 38.2701 144.67 38.0874C144.417 37.9007 144.083 37.8074 143.666 37.8074C143.293 37.8074 142.982 37.9007 142.733 38.0874C142.488 38.2701 142.366 38.5093 142.366 38.8049H140.616C140.616 38.346 140.744 37.9337 141.001 37.5682C141.261 37.1987 141.629 36.911 142.103 36.7048C142.581 36.4987 143.103 36.3957 143.666 36.3957C144.646 36.3957 145.415 36.6057 145.971 37.0257C146.527 37.4457 146.805 38.0407 146.805 38.8107C146.805 39.1879 146.69 39.5379 146.461 39.8607C146.235 40.1835 145.912 40.4421 145.492 40.6366C145.959 40.7999 146.317 41.0488 146.566 41.3833C146.815 41.7138 146.939 42.1261 146.939 42.62C146.939 43.3822 146.64 43.9889 146.041 44.44C145.446 44.8872 144.654 45.1108 143.666 45.1108C143.048 45.1108 142.492 45.0058 141.998 44.7958C141.504 44.5819 141.129 44.2922 140.872 43.9266C140.619 43.5572 140.493 43.1294 140.493 42.6433H142.255C142.255 42.9466 142.387 43.2014 142.651 43.4075C142.916 43.6097 143.254 43.7108 143.666 43.7108C144.133 43.7108 144.501 43.6058 144.769 43.3958C145.041 43.1858 145.177 42.9194 145.177 42.5966C145.177 42.1533 145.057 41.8363 144.816 41.6458C144.575 41.4513 144.223 41.3541 143.76 41.3541H142.716V39.9832H143.795C144.631 39.9716 145.049 39.5924 145.049 38.8457ZM157.808 43.25H154.739L154.156 45H152.295L155.457 36.5065H157.079L160.258 45H158.397L157.808 43.25ZM155.212 41.8324H157.335L156.268 38.6532L155.212 41.8324ZM172.749 45H170.993V37.924H167.592V45H165.842V36.5065H172.749V45ZM185.846 36.5065V45H184.09V41.7799C183.557 41.8927 183.001 41.9491 182.422 41.9491C181.344 41.9491 180.526 41.7138 179.966 41.2433C179.41 40.7727 179.124 40.0921 179.108 39.2016V36.5065H180.864V39.1666C180.868 39.6527 180.985 40.0027 181.214 40.2166C181.447 40.4305 181.85 40.5374 182.422 40.5374C183.001 40.5374 183.557 40.481 184.09 40.3682V36.5065H185.846ZM197.053 43.25H193.985L193.401 45H191.54L194.702 36.5065H196.324L199.503 45H197.642L197.053 43.25ZM194.457 41.8324H196.58L195.513 38.6532L194.457 41.8324ZM211.614 42.1708C211.548 43.0847 211.21 43.8041 210.599 44.3292C209.993 44.8542 209.192 45.1167 208.196 45.1167C207.107 45.1167 206.25 44.7511 205.623 44.02C205.001 43.285 204.69 42.2777 204.69 40.9983V40.4791C204.69 39.6624 204.834 38.9429 205.122 38.3207C205.41 37.6985 205.82 37.2221 206.353 36.8915C206.889 36.5571 207.512 36.3898 208.219 36.3898C209.199 36.3898 209.989 36.6523 210.588 37.1773C211.187 37.7024 211.533 38.4393 211.626 39.3882H209.876C209.833 38.8399 209.68 38.4432 209.415 38.1982C209.155 37.9493 208.756 37.8249 208.219 37.8249C207.636 37.8249 207.199 38.0349 206.907 38.4549C206.619 38.871 206.471 39.5185 206.464 40.3974V41.0391C206.464 41.9569 206.602 42.6277 206.878 43.0516C207.158 43.4755 207.597 43.6875 208.196 43.6875C208.737 43.6875 209.139 43.565 209.404 43.32C209.672 43.0711 209.826 42.688 209.864 42.1708H211.614ZM223.761 37.924H221.159V45H219.409V37.924H216.842V36.5065H223.761V37.924ZM234.636 36.5065H236.391V45H234.636V39.3591L231.235 45H229.485V36.5065H231.235V42.1591L234.636 36.5065Z" fill="#111111"/>
<g clip-path="url(#clip0)">
<path d="M46.6006 21.8382L42.3362 21.3259C41.9004 19.6993 41.262 18.1625 40.4401 16.7366L43.0912 13.3667C43.4965 12.8487 43.4506 12.0478 42.9823 11.5815L38.5879 7.18518C38.1253 6.7207 37.3225 6.671 36.8026 7.07623L33.4271 9.7312C32.0069 8.90929 30.4701 8.27087 28.8473 7.83889L28.3369 3.57449C28.2586 2.92269 27.6565 2.3894 26.9989 2.3894H20.783C20.1254 2.3894 19.5233 2.92269 19.4469 3.57449L18.9346 7.83889C17.3099 8.27278 15.7712 8.91311 14.351 9.73311L10.9773 7.08196C10.4612 6.67674 9.65845 6.72452 9.19397 7.189L4.79768 11.5872C4.33512 12.0498 4.28733 12.8526 4.69447 13.3725L7.34371 16.7442C6.52179 18.1663 5.88338 19.705 5.44948 21.3317L1.187 21.842C0.5352 21.9185 0 22.5206 0 23.18V29.396C0 30.0535 0.533288 30.6518 1.187 30.7321L5.45139 31.2443C5.8872 32.8652 6.5237 34.402 7.34562 35.8241L4.69638 39.1997C4.29307 39.7177 4.33894 40.5186 4.80533 40.985L9.19397 45.3832C9.65845 45.8457 10.4612 45.8973 10.9773 45.4921L14.3529 42.8352C15.775 43.6571 17.3118 44.2975 18.9365 44.7294L19.4488 48.9919C19.5271 49.6456 20.1273 50.177 20.7849 50.177H27.0008C27.6603 50.177 28.2605 49.6456 28.3369 48.9919L28.8492 44.7294C30.4758 44.2936 32.0126 43.6552 33.4328 42.8352L36.8084 45.4864C37.3264 45.8916 38.1273 45.8438 38.5917 45.3793L42.9861 40.9811C43.4525 40.5186 43.5003 39.7158 43.0931 39.1939L40.4401 35.8222C41.2639 34.4001 41.9004 32.8633 42.3362 31.2405L46.5987 30.7282C47.2524 30.6499 47.7857 30.0535 47.7857 29.3921V23.1762C47.7876 22.5148 47.2562 21.9166 46.6006 21.8382ZM23.8948 38.2287C17.2965 38.2287 11.9483 32.8805 11.9483 26.2823C11.9483 19.684 17.2965 14.3358 23.8948 14.3358C30.493 14.3358 35.8412 19.684 35.8412 26.2823C35.8412 32.8805 30.4949 38.2287 23.8948 38.2287Z" fill="#111111"/>
<circle cx="23.8938" cy="26.2832" r="14.3363" fill="white"/>
<g clip-path="url(#clip1)">
<path d="M33.1863 16.9907C30.7042 14.5086 27.404 13.1416 23.8938 13.1416C20.3835 13.1416 17.0834 14.5086 14.6012 16.9907C12.1192 19.4728 10.7522 22.773 10.7522 26.2832C10.7522 29.7934 12.1192 33.0936 14.6012 35.5757C17.0834 38.0578 20.3835 39.4248 23.8938 39.4248C27.404 39.4248 30.7042 38.0578 33.1863 35.5757C35.6684 33.0936 37.0354 29.7934 37.0354 26.2832C37.0354 22.773 35.6684 19.4728 33.1863 16.9907ZM23.8938 37.8848C17.4967 37.8848 12.2922 32.6803 12.2922 26.2832C12.2922 19.8861 17.4967 14.6816 23.8938 14.6816C30.2909 14.6816 35.4954 19.8861 35.4954 26.2832C35.4954 32.6803 30.2909 37.8848 23.8938 37.8848Z" fill="#111111"/>
<path d="M20.5642 28.2055C20.1626 27.5098 19.4923 27.0901 18.7254 27.0541L13.8215 27.0532L13.9713 27.95C14.1692 29.1357 14.576 30.2675 15.1802 31.314C15.7844 32.3605 16.5611 33.2786 17.489 34.0429L18.1908 34.621L20.6281 30.3995L20.6431 30.3664C20.9618 29.6698 20.9316 28.8418 20.5642 28.2055ZM19.2548 29.6979L17.7915 32.2324C17.2988 31.7275 16.8708 31.1622 16.5138 30.544C16.1568 29.9256 15.8813 29.2724 15.6904 28.5933H18.668C18.904 28.6092 19.0932 28.7377 19.2305 28.9755C19.3429 29.1699 19.3517 29.4628 19.2548 29.6979Z" fill="#111111"/>
<path d="M25.8254 31.1694L25.8043 31.1397C25.3604 30.5155 24.6282 30.1277 23.8935 30.1277C23.0901 30.1277 22.3916 30.4983 21.9769 31.1445L19.5243 35.3909L20.3758 35.7097C21.5015 36.131 22.685 36.3447 23.8935 36.3447C25.1018 36.3447 26.2853 36.131 27.4111 35.7097L28.2627 35.3909L25.8254 31.1694ZM23.8935 34.8047C23.1795 34.8047 22.476 34.7167 21.7924 34.5424L23.2812 31.9638C23.413 31.7673 23.6189 31.6677 23.8935 31.6677C24.118 31.6677 24.376 31.8064 24.5312 32.0079L25.9945 34.5424C25.311 34.7167 24.6074 34.8047 23.8935 34.8047Z" fill="#111111"/>
<path d="M29.0913 27.0532L29.0551 27.0567C28.2925 27.129 27.5905 27.5692 27.2232 28.2055C26.8215 28.9012 26.7931 29.6915 27.1454 30.3737L29.5966 34.621L30.2984 34.0429C31.2263 33.2786 32.003 32.3605 32.6072 31.314C33.2114 30.2675 33.6181 29.1357 33.8161 27.95L33.9659 27.0532H29.0913ZM29.9959 32.2324L28.5071 29.6538C28.4029 29.4415 28.4196 29.2134 28.5569 28.9755C28.6691 28.7811 28.9182 28.6269 29.1703 28.5934H32.0969C31.9061 29.2725 31.6305 29.9257 31.2735 30.544C30.9166 31.1623 30.4886 31.7276 29.9959 32.2324Z" fill="#111111"/>
<path d="M33.8159 24.6163C33.6179 23.4307 33.2111 22.2989 32.6069 21.2524C32.0027 20.2059 31.226 19.2878 30.2982 18.5235L29.5964 17.9454L27.1591 22.1669L27.144 22.2C26.8253 22.8965 26.8555 23.7246 27.2229 24.3609C27.6246 25.0566 28.2948 25.4762 29.0617 25.5123L33.9656 25.5131L33.8159 24.6163ZM29.1192 23.9731C28.8832 23.9572 28.6939 23.8287 28.5567 23.5909C28.4443 23.3964 28.4354 23.1036 28.5323 22.8685L29.9957 20.334C30.4884 20.8388 30.9163 21.4041 31.2733 22.0224C31.6303 22.6407 31.9059 23.294 32.0967 23.9731H29.1192Z" fill="#111111"/>
<path d="M27.4111 16.8567C26.2855 16.4353 25.102 16.2217 23.8935 16.2217C22.6852 16.2217 21.5016 16.4353 20.3759 16.8567L19.5243 17.1754L21.9616 21.397L21.9827 21.4266C22.4266 22.0509 23.1588 22.4387 23.8935 22.4387C24.6968 22.4387 25.3954 22.0681 25.81 21.4219L28.2627 17.1754L27.4111 16.8567ZM24.5058 20.6026C24.374 20.7991 24.1681 20.8986 23.8935 20.8986C23.669 20.8986 23.411 20.76 23.2558 20.5585L21.7925 18.024C22.476 17.8497 23.1796 17.7617 23.8935 17.7617C24.6075 17.7617 25.311 17.8497 25.9946 18.024L24.5058 20.6026Z" fill="#111111"/>
<path d="M20.642 22.1927L18.1908 17.9454L17.489 18.5236C16.5611 19.2878 15.7844 20.2059 15.1801 21.2524C14.5759 22.2989 14.1692 23.4307 13.9712 24.6163L13.8215 25.5131H18.6961L18.7323 25.5097C19.4949 25.4374 20.1969 24.9972 20.5642 24.3609C20.9659 23.6653 20.9943 22.875 20.642 22.1927ZM19.2305 23.5909C19.1183 23.7853 18.8692 23.9395 18.6171 23.9731H15.6905C15.8813 23.294 16.1569 22.6407 16.5139 22.0224C16.8708 21.4041 17.2988 20.8388 17.7915 20.334L19.2803 22.9126C19.3845 23.125 19.3679 23.353 19.2305 23.5909Z" fill="#111111"/>
<path d="M23.8935 23.9731C22.6198 23.9731 21.5835 25.0094 21.5835 26.2832C21.5835 27.5569 22.6198 28.5932 23.8935 28.5932C25.1673 28.5932 26.2036 27.5569 26.2036 26.2832C26.2036 25.0094 25.1673 23.9731 23.8935 23.9731ZM23.8935 27.0532C23.469 27.0532 23.1235 26.7078 23.1235 26.2832C23.1235 25.8586 23.469 25.5132 23.8935 25.5132C24.3181 25.5132 24.6636 25.8586 24.6636 26.2832C24.6636 26.7078 24.3181 27.0532 23.8935 27.0532Z" fill="#111111"/>
</g>
</g>
<defs>
<clipPath id="clip0">
<rect width="47.7857" height="47.7876" fill="white" transform="translate(0 2.3894)"/>
</clipPath>
<clipPath id="clip1">
<rect width="26.2832" height="26.2832" fill="white" transform="translate(10.7522 13.1416)"/>
</clipPath>
</defs>
</svg>
