<svg width="8" height="15" viewBox="0 0 8 15" fill="none" xmlns="http://www.w3.org/2000/svg">
<path d="M6.58333 14.7917C6.82672 14.7922 7.06259 14.7074 7.25 14.5521C7.35548 14.4646 7.44266 14.3572 7.50657 14.2361C7.57048 14.1149 7.60985 13.9822 7.62243 13.8458C7.63501 13.7094 7.62055 13.5718 7.57988 13.441C7.53921 13.3101 7.47313 13.1886 7.38541 13.0833L2.71875 7.50001L7.21875 1.90626C7.30527 1.79971 7.36989 1.67711 7.40888 1.54551C7.44787 1.4139 7.46047 1.27589 7.44595 1.1394C7.43143 1.00291 7.39008 0.870642 7.32427 0.750187C7.25847 0.629732 7.1695 0.52347 7.0625 0.437509C6.95472 0.34268 6.82851 0.271151 6.69178 0.227412C6.55504 0.183674 6.41075 0.16867 6.26794 0.183342C6.12514 0.198013 5.98691 0.242044 5.86192 0.312671C5.73694 0.383298 5.62791 0.478996 5.54167 0.593759L0.510417 6.84376C0.357207 7.03015 0.273451 7.26394 0.273451 7.50522C0.273451 7.74649 0.357207 7.98029 0.510417 8.16668L5.71875 14.4167C5.82325 14.5427 5.95599 14.6424 6.10621 14.7075C6.25643 14.7727 6.41989 14.8015 6.58333 14.7917Z" fill="#fff"/>
</svg>
