<svg width="8" height="15" viewBox="0 0 8 15" fill="none" xmlns="http://www.w3.org/2000/svg">
<path d="M1.41667 14.7917C1.17328 14.7922 0.93741 14.7074 0.750002 14.5521C0.644524 14.4646 0.557335 14.3572 0.493427 14.2361C0.429519 14.1149 0.390147 13.9822 0.377568 13.8458C0.364989 13.7094 0.37945 13.5718 0.420121 13.441C0.460792 13.3101 0.526875 13.1886 0.614585 13.0833L5.28125 7.50001L0.781253 1.90626C0.694726 1.79971 0.630109 1.67711 0.591118 1.54551C0.552126 1.4139 0.539529 1.27589 0.554049 1.1394C0.568569 1.00291 0.60992 0.870642 0.675726 0.750187C0.741532 0.629732 0.830495 0.52347 0.937502 0.437509C1.04528 0.34268 1.17149 0.271151 1.30822 0.227412C1.44496 0.183674 1.58925 0.16867 1.73206 0.183342C1.87486 0.198013 2.01309 0.242044 2.13808 0.312671C2.26306 0.383298 2.37209 0.478996 2.45833 0.593759L7.48958 6.84376C7.64279 7.03015 7.72655 7.26394 7.72655 7.50522C7.72655 7.74649 7.64279 7.98029 7.48958 8.16668L2.28125 14.4167C2.17675 14.5427 2.04401 14.6424 1.89379 14.7075C1.74357 14.7727 1.58011 14.8015 1.41667 14.7917Z" fill="#111111"/>
</svg>
